<mxfile host="app.diagrams.net" modified="2020-12-12T20:35:27.478Z" agent="5.0 (X11)" etag="Q6EK5_B2yCPV-JIOlRuH" version="14.0.1" type="github">
  <diagram id="o_lFdIPOgspVXL8JECPB" name="Page-1">
    <mxGraphModel dx="27131" dy="11105" grid="1" gridSize="10" guides="1" tooltips="1" connect="1" arrows="1" fold="1" page="1" pageScale="1" pageWidth="827" pageHeight="1169" math="0" shadow="0">
      <root>
        <mxCell id="0" />
        <mxCell id="1" parent="0" />
        <mxCell id="S4FQM-zOlW_nF9xKUVDt-63" value="" style="rounded=0;whiteSpace=wrap;html=1;fillColor=#dae8fc;strokeColor=#6c8ebf;" vertex="1" parent="1">
          <mxGeometry x="3750" y="1390" width="590" height="450" as="geometry" />
        </mxCell>
        <mxCell id="zS7vpeie0VKiPVLgqqQx-1" value="&lt;p style=&quot;margin: 0px ; margin-top: 4px ; text-align: center&quot;&gt;&lt;b&gt;Proveedor&lt;/b&gt;&lt;/p&gt;&lt;hr size=&quot;1&quot;&gt;&lt;p style=&quot;margin: 0px ; margin-left: 4px&quot;&gt;- idProveedor: int&lt;/p&gt;&lt;p style=&quot;margin: 0px ; margin-left: 4px&quot;&gt;-nombre: String&lt;/p&gt;&lt;p style=&quot;margin: 0px ; margin-left: 4px&quot;&gt;-cargamentos : List&amp;lt;Cargamento&amp;gt;&lt;/p&gt;&lt;p style=&quot;margin: 0px ; margin-left: 4px&quot;&gt;&lt;br&gt;&lt;/p&gt;&lt;hr size=&quot;1&quot;&gt;&lt;p style=&quot;margin: 0px ; margin-left: 4px&quot;&gt;+ Proveedor()&lt;/p&gt;&lt;p style=&quot;margin: 0px ; margin-left: 4px&quot;&gt;+ Proveedor(idProveedor, nombre)&lt;/p&gt;&lt;p style=&quot;margin: 0px ; margin-left: 4px&quot;&gt;+ getIdProveedor(): int&lt;/p&gt;&lt;p style=&quot;margin: 0px ; margin-left: 4px&quot;&gt;+ getNombre():String&lt;/p&gt;&lt;p style=&quot;margin: 0px ; margin-left: 4px&quot;&gt;+ setIdProveedor(int): void&lt;/p&gt;&lt;p style=&quot;margin: 0px ; margin-left: 4px&quot;&gt;+setNombre(String): void&lt;/p&gt;&lt;p style=&quot;margin: 0px ; margin-left: 4px&quot;&gt;&lt;br&gt;&lt;/p&gt;" style="verticalAlign=top;align=left;overflow=fill;fontSize=12;fontFamily=Helvetica;html=1;" parent="1" vertex="1">
          <mxGeometry x="-610" y="920" width="240" height="200" as="geometry" />
        </mxCell>
        <mxCell id="zS7vpeie0VKiPVLgqqQx-2" value="&lt;p style=&quot;margin: 0px ; margin-top: 4px ; text-align: center&quot;&gt;&lt;b&gt;Cargamento&lt;/b&gt;&lt;br&gt;&lt;/p&gt;&lt;hr size=&quot;1&quot;&gt;&lt;p style=&quot;margin: 0px ; margin-left: 4px&quot;&gt;- idCargamento: int&lt;/p&gt;&lt;p style=&quot;margin: 0px ; margin-left: 4px&quot;&gt;- calidad: int&lt;/p&gt;&lt;p style=&quot;margin: 0px ; margin-left: 4px&quot;&gt;- estado: String&lt;/p&gt;&lt;p style=&quot;margin: 0px ; margin-left: 4px&quot;&gt;- pesoGlobal: double &lt;/p&gt;&lt;p style=&quot;margin: 0px ; margin-left: 4px&quot;&gt;- precioKilo: double &lt;/p&gt;&lt;p style=&quot;margin: 0px ; margin-left: 4px&quot;&gt;- proveedor: Proveedor &lt;/p&gt;&lt;p style=&quot;margin: 0px ; margin-left: 4px&quot;&gt;- pescado: Pescado&lt;/p&gt;&lt;p style=&quot;margin: 0px ; margin-left: 4px&quot;&gt;-&amp;nbsp; empleado: Empleado&lt;/p&gt;&lt;p style=&quot;margin: 0px ; margin-left: 4px&quot;&gt;- limpieza: Limpieza &lt;/p&gt;&lt;hr size=&quot;1&quot;&gt;&lt;div&gt;+ Cargamento()&lt;/div&gt;&lt;div&gt;+ Cargamento(idCargamento, calidad, estado, pesoGlobal&lt;/div&gt;&lt;div&gt;&amp;nbsp;&amp;nbsp;&amp;nbsp; precioKilo, proveedor, pescado, empleado, limpieza)&lt;/div&gt;&lt;div&gt;+ getIdCargamento(): int&lt;/div&gt;&lt;div&gt;+ getCalidad(): int&lt;/div&gt;&lt;div&gt;+ getEstado(): String&lt;/div&gt;&lt;div&gt;+ getPesoGlobal(): double&lt;/div&gt;&lt;div&gt;+ getPrecioKilo(): double&lt;/div&gt;&lt;div&gt;+ getProveedor(): Proveedor&lt;br&gt;&lt;/div&gt;&lt;div&gt;+ getPescado(): Pescado&lt;br&gt;&lt;/div&gt;&lt;div&gt;+ getEmpleado(): Empleado&lt;br&gt;&lt;/div&gt;&lt;div&gt;+ getLimpieza(): Limpieza&lt;br&gt;&lt;/div&gt;&lt;div&gt;+ setIdCargamento(int)&lt;/div&gt;&lt;div&gt;+ setCalidad(int): void&lt;br&gt;&lt;/div&gt;&lt;div&gt;+ setEstado(String): void&lt;/div&gt;&lt;div&gt;+ setPesoGloabal(double): void&lt;/div&gt;&lt;div&gt;+ setPrecioKilo(double): void&lt;/div&gt;&lt;div&gt;+ setProveedor(Proveedor): void&lt;/div&gt;&lt;div&gt;+ setPescado(Pescado): void&lt;/div&gt;&lt;div&gt;+ setEmpleado(Empleado): void&lt;/div&gt;&lt;div&gt;+ setLimpieza(Limpieza): void&lt;/div&gt;&lt;div&gt;&lt;/div&gt;&lt;div&gt;&lt;br&gt;&lt;/div&gt;" style="verticalAlign=top;align=left;overflow=fill;fontSize=12;fontFamily=Helvetica;html=1;" parent="1" vertex="1">
          <mxGeometry x="360" y="920" width="330" height="480" as="geometry" />
        </mxCell>
        <mxCell id="zS7vpeie0VKiPVLgqqQx-3" value="Use" style="endArrow=open;endSize=12;dashed=1;html=1;exitX=0.001;exitY=0.022;exitDx=0;exitDy=0;exitPerimeter=0;entryX=1.016;entryY=0.054;entryDx=0;entryDy=0;entryPerimeter=0;" parent="1" source="zS7vpeie0VKiPVLgqqQx-2" target="zS7vpeie0VKiPVLgqqQx-1" edge="1">
          <mxGeometry width="160" relative="1" as="geometry">
            <mxPoint x="280" y="970" as="sourcePoint" />
            <mxPoint x="120" y="970" as="targetPoint" />
          </mxGeometry>
        </mxCell>
        <mxCell id="zS7vpeie0VKiPVLgqqQx-7" value="&lt;p style=&quot;margin: 0px ; margin-top: 4px ; text-align: center&quot;&gt;&lt;b&gt;Pescado&lt;/b&gt;&lt;/p&gt;&lt;hr size=&quot;1&quot;&gt;&lt;p style=&quot;margin: 0px ; margin-left: 4px&quot;&gt;- idPescado: int&lt;/p&gt;&lt;p style=&quot;margin: 0px ; margin-left: 4px&quot;&gt;-color: String&lt;/p&gt;&lt;p style=&quot;margin: 0px ; margin-left: 4px&quot;&gt;-nombre: String&lt;/p&gt;&lt;p style=&quot;margin: 0px ; margin-left: 4px&quot;&gt;-tamanioPromedio: double&lt;/p&gt;&lt;p style=&quot;margin: 0px ; margin-left: 4px&quot;&gt;-tipo: String&lt;/p&gt;&lt;p style=&quot;margin: 0px ; margin-left: 4px&quot;&gt;-cargamentos : List&amp;lt;Cargamento&amp;gt;&lt;/p&gt;&lt;p style=&quot;margin: 0px ; margin-left: 4px&quot;&gt;-productos : List&amp;lt;Producto&amp;gt;&lt;/p&gt;&lt;p style=&quot;margin: 0px ; margin-left: 4px&quot;&gt;&lt;br&gt;&lt;/p&gt;&lt;hr size=&quot;1&quot;&gt;&lt;p style=&quot;margin: 0px ; margin-left: 4px&quot;&gt;+ Pescado()&lt;/p&gt;&lt;p style=&quot;margin: 0px ; margin-left: 4px&quot;&gt;+ Pescado(idPescado, color, nombre, tamanioPromedio, &lt;br&gt;&lt;/p&gt;&lt;p style=&quot;margin: 0px ; margin-left: 4px&quot;&gt;&amp;nbsp;&amp;nbsp; tipo)&lt;/p&gt;&lt;p style=&quot;margin: 0px ; margin-left: 4px&quot;&gt;+ getIdPescado(): int&lt;/p&gt;&lt;p style=&quot;margin: 0px ; margin-left: 4px&quot;&gt;+ getColor():String&lt;/p&gt;&lt;p style=&quot;margin: 0px ; margin-left: 4px&quot;&gt;+ getNombre(): String&lt;/p&gt;&lt;p style=&quot;margin: 0px ; margin-left: 4px&quot;&gt;+ getTamanioPromedio(): double&lt;br&gt;&lt;/p&gt;&lt;p style=&quot;margin: 0px ; margin-left: 4px&quot;&gt;+ getTipo(): String&lt;/p&gt;&lt;p style=&quot;margin: 0px ; margin-left: 4px&quot;&gt;+setIdPescado(int): void&lt;/p&gt;&lt;p style=&quot;margin: 0px ; margin-left: 4px&quot;&gt;+setColor(String): void&lt;/p&gt;&lt;p style=&quot;margin: 0px ; margin-left: 4px&quot;&gt;+setNombre(String): void&lt;/p&gt;&lt;p style=&quot;margin: 0px ; margin-left: 4px&quot;&gt;+setTamanioPromedio(double): void&lt;/p&gt;&lt;p style=&quot;margin: 0px ; margin-left: 4px&quot;&gt;+setTipo(String): void&lt;/p&gt;&lt;p style=&quot;margin: 0px ; margin-left: 4px&quot;&gt;&lt;br&gt;&lt;/p&gt;&lt;p style=&quot;margin: 0px ; margin-left: 4px&quot;&gt;&lt;br&gt;&lt;/p&gt;" style="verticalAlign=top;align=left;overflow=fill;fontSize=12;fontFamily=Helvetica;html=1;" parent="1" vertex="1">
          <mxGeometry x="360" y="-790" width="330" height="360" as="geometry" />
        </mxCell>
        <mxCell id="zS7vpeie0VKiPVLgqqQx-8" value="&lt;p style=&quot;margin: 0px ; margin-top: 4px ; text-align: center&quot;&gt;&lt;b&gt;Empleado&lt;/b&gt;&lt;/p&gt;&lt;hr size=&quot;1&quot;&gt;&lt;p style=&quot;margin: 0px ; margin-left: 4px&quot;&gt;- idProveedor: int&lt;/p&gt;&lt;p style=&quot;margin: 0px ; margin-left: 4px&quot;&gt;-nombre: String&lt;/p&gt;&lt;p style=&quot;margin: 0px ; margin-left: 4px&quot;&gt;-contrasenia: String&lt;/p&gt;&lt;p style=&quot;margin: 0px ; margin-left: 4px&quot;&gt;-direccion: String&lt;/p&gt;&lt;p style=&quot;margin: 0px ; margin-left: 4px&quot;&gt;-fechaContrato: String&lt;/p&gt;&lt;p style=&quot;margin: 0px ; margin-left: 4px&quot;&gt;-fechaNacimiento: String&lt;/p&gt;&lt;p style=&quot;margin: 0px ; margin-left: 4px&quot;&gt;-nombre: String&lt;/p&gt;&lt;p style=&quot;margin: 0px ; margin-left: 4px&quot;&gt;-puesto: String&lt;/p&gt;&lt;p style=&quot;margin: 0px ; margin-left: 4px&quot;&gt;-telefono: String&lt;/p&gt;&lt;p style=&quot;margin: 0px ; margin-left: 4px&quot;&gt;-usuario : String&lt;br&gt;&lt;/p&gt;&lt;p style=&quot;margin: 0px ; margin-left: 4px&quot;&gt;-cargamentos : List&amp;lt;Cargamento&amp;gt;&lt;/p&gt;&lt;p style=&quot;margin: 0px ; margin-left: 4px&quot;&gt;-limpieza : List&amp;lt;Limpieza&amp;gt;&lt;/p&gt;&lt;p style=&quot;margin: 0px ; margin-left: 4px&quot;&gt;-facturas : List&amp;lt;Factura&amp;gt;&lt;/p&gt;&lt;p style=&quot;margin: 0px ; margin-left: 4px&quot;&gt;&lt;br&gt;&lt;/p&gt;&lt;hr size=&quot;1&quot;&gt;&lt;p style=&quot;margin: 0px ; margin-left: 4px&quot;&gt;+ Empleado()&lt;/p&gt;&lt;p style=&quot;margin: 0px ; margin-left: 4px&quot;&gt;+ Empleado(idEmpleado, contrasenia, direccion, &lt;br&gt;&lt;/p&gt;&lt;p style=&quot;margin: 0px ; margin-left: 4px&quot;&gt;&amp;nbsp;&amp;nbsp; fechaContrato, fechaNacimiento, nombre, puesto, telefono,&lt;/p&gt;&lt;p style=&quot;margin: 0px ; margin-left: 4px&quot;&gt;&amp;nbsp;&amp;nbsp; usuario)&lt;/p&gt;&lt;p style=&quot;margin: 0px ; margin-left: 4px&quot;&gt;+ getIdEmpleado(): int&lt;/p&gt;&lt;p style=&quot;margin: 0px ; margin-left: 4px&quot;&gt;+ getContrasenia():String&lt;/p&gt;&lt;p style=&quot;margin: 0px ; margin-left: 4px&quot;&gt;+ getDireccion():String&lt;/p&gt;&lt;p style=&quot;margin: 0px ; margin-left: 4px&quot;&gt;+ getFechaContrato():String&lt;/p&gt;&lt;p style=&quot;margin: 0px ; margin-left: 4px&quot;&gt;+ getFechaNacimiento():String&lt;/p&gt;&lt;p style=&quot;margin: 0px ; margin-left: 4px&quot;&gt;+ getNombre():String&lt;/p&gt;&lt;p style=&quot;margin: 0px ; margin-left: 4px&quot;&gt;+ getPuesto():String&lt;/p&gt;&lt;p style=&quot;margin: 0px ; margin-left: 4px&quot;&gt;+ getTelefono():String&lt;/p&gt;&lt;p style=&quot;margin: 0px ; margin-left: 4px&quot;&gt;+ getUsuario():String&lt;/p&gt;&lt;p style=&quot;margin: 0px ; margin-left: 4px&quot;&gt;+ getCargamentos(): List&amp;lt;Cargamento&amp;gt;&lt;br&gt;&lt;/p&gt;&lt;p style=&quot;margin: 0px ; margin-left: 4px&quot;&gt;+ getLimpiezas(): List&amp;lt;Limpieza&amp;gt;&lt;/p&gt;&lt;p style=&quot;margin: 0px ; margin-left: 4px&quot;&gt;+ getFacturas(): List&amp;lt;Factura&amp;gt;&lt;/p&gt;&lt;p style=&quot;margin: 0px ; margin-left: 4px&quot;&gt;+setIdEmpleado: (int)&lt;/p&gt;&lt;p style=&quot;margin: 0px ; margin-left: 4px&quot;&gt;+setContrasenia: (String)&lt;/p&gt;&lt;p style=&quot;margin: 0px ; margin-left: 4px&quot;&gt;+setDireccion:(String)&lt;/p&gt;&lt;p style=&quot;margin: 0px ; margin-left: 4px&quot;&gt;+setFechaContrato:(String)&lt;/p&gt;&lt;p style=&quot;margin: 0px ; margin-left: 4px&quot;&gt;+setFechaNacimiento:(String)&lt;/p&gt;&lt;p style=&quot;margin: 0px ; margin-left: 4px&quot;&gt;+setNombre:(String)&lt;/p&gt;&lt;p style=&quot;margin: 0px ; margin-left: 4px&quot;&gt;+setPuesto:(String)&lt;/p&gt;&lt;p style=&quot;margin: 0px ; margin-left: 4px&quot;&gt;+setTelefono:(String)&lt;/p&gt;&lt;p style=&quot;margin: 0px ; margin-left: 4px&quot;&gt;+setUsuario:(String)&lt;/p&gt;&lt;p style=&quot;margin: 0px ; margin-left: 4px&quot;&gt;+ setCargamentos(List&amp;lt;Cargamento&amp;gt;): void&lt;br&gt;&lt;/p&gt;&lt;p style=&quot;margin: 0px ; margin-left: 4px&quot;&gt;+ setLimpiezas(List&amp;lt;Limpieza&amp;gt;): void&lt;br&gt;&lt;/p&gt;&lt;p style=&quot;margin: 0px ; margin-left: 4px&quot;&gt;+ setFacturas(List&amp;lt;Factura&amp;gt;): void&lt;br&gt;&lt;/p&gt;&lt;p style=&quot;margin: 0px ; margin-left: 4px&quot;&gt;&lt;br&gt;&lt;/p&gt;" style="verticalAlign=top;align=left;overflow=fill;fontSize=12;fontFamily=Helvetica;html=1;" parent="1" vertex="1">
          <mxGeometry x="827" y="1960" width="330" height="670" as="geometry" />
        </mxCell>
        <mxCell id="zS7vpeie0VKiPVLgqqQx-9" value="&lt;p style=&quot;margin: 0px ; margin-top: 4px ; text-align: center&quot;&gt;&lt;b&gt;Limpieza&lt;/b&gt;&lt;/p&gt;&lt;hr size=&quot;1&quot;&gt;&lt;p style=&quot;margin: 0px ; margin-left: 4px&quot;&gt;- idLimpieza: int&lt;/p&gt;&lt;p style=&quot;margin: 0px ; margin-left: 4px&quot;&gt;-horaFinal: String&lt;/p&gt;&lt;p style=&quot;margin: 0px ; margin-left: 4px&quot;&gt;-horaInicio: String&lt;/p&gt;&lt;p style=&quot;margin: 0px ; margin-left: 4px&quot;&gt;-numEmpleados: int&lt;/p&gt;&lt;p style=&quot;margin: 0px ; margin-left: 4px&quot;&gt;-supervisor: Empleado&lt;br&gt;&lt;/p&gt;&lt;p style=&quot;margin: 0px ; margin-left: 4px&quot;&gt;-cargamentos : List&amp;lt;Cargamento&amp;gt;&lt;/p&gt;&lt;p style=&quot;margin: 0px ; margin-left: 4px&quot;&gt;&lt;br&gt;&lt;/p&gt;&lt;hr size=&quot;1&quot;&gt;&lt;p style=&quot;margin: 0px ; margin-left: 4px&quot;&gt;+ Limpieza()&lt;/p&gt;&lt;p style=&quot;margin: 0px ; margin-left: 4px&quot;&gt;+ Limpieza(idLimpieza, horaFinal, horaInicio, numEmpleados,&lt;/p&gt;&lt;p style=&quot;margin: 0px ; margin-left: 4px&quot;&gt;&amp;nbsp;&amp;nbsp;&amp;nbsp; supervisor)&lt;br&gt;&lt;/p&gt;&lt;p style=&quot;margin: 0px ; margin-left: 4px&quot;&gt;+ getIdLimpieza(): int&lt;/p&gt;&lt;p style=&quot;margin: 0px ; margin-left: 4px&quot;&gt;+ getHoraFinal():String&lt;/p&gt;&lt;p style=&quot;margin: 0px ; margin-left: 4px&quot;&gt;+ getHoraInicio():String&lt;/p&gt;&lt;p style=&quot;margin: 0px ; margin-left: 4px&quot;&gt;+ getNumEmpleados():int&lt;/p&gt;&lt;p style=&quot;margin: 0px ; margin-left: 4px&quot;&gt;+ getSupervisor():Empleado&lt;/p&gt;&lt;p style=&quot;margin: 0px ; margin-left: 4px&quot;&gt;+ getCargamentos():List&amp;lt;Cargamento&amp;gt;&lt;/p&gt;&lt;p style=&quot;margin: 0px ; margin-left: 4px&quot;&gt;+setIdLimpieza(int):void&lt;/p&gt;&lt;p style=&quot;margin: 0px ; margin-left: 4px&quot;&gt;+setHoraFinal(String):void&lt;/p&gt;&lt;p style=&quot;margin: 0px ; margin-left: 4px&quot;&gt;+setHoraInicio(String):void&lt;/p&gt;&lt;p style=&quot;margin: 0px ; margin-left: 4px&quot;&gt;+setNumEmpleados(int):void&lt;/p&gt;&lt;p style=&quot;margin: 0px ; margin-left: 4px&quot;&gt;+setSupervisorl(Empleado):void&lt;/p&gt;&lt;p style=&quot;margin: 0px ; margin-left: 4px&quot;&gt;+setCargamentos(List&amp;lt;Cargamento&amp;gt;):void&lt;/p&gt;&lt;p style=&quot;margin: 0px ; margin-left: 4px&quot;&gt;&lt;br&gt;&lt;/p&gt;&lt;br&gt;&lt;p style=&quot;margin: 0px ; margin-left: 4px&quot;&gt;&lt;br&gt;&lt;/p&gt;" style="verticalAlign=top;align=left;overflow=fill;fontSize=12;fontFamily=Helvetica;html=1;" parent="1" vertex="1">
          <mxGeometry x="1240" y="920" width="350" height="380" as="geometry" />
        </mxCell>
        <mxCell id="zS7vpeie0VKiPVLgqqQx-11" value="Use" style="endArrow=open;endSize=12;dashed=1;html=1;exitX=0.5;exitY=0;exitDx=0;exitDy=0;entryX=0.5;entryY=1;entryDx=0;entryDy=0;" parent="1" source="zS7vpeie0VKiPVLgqqQx-2" target="zS7vpeie0VKiPVLgqqQx-7" edge="1">
          <mxGeometry width="160" relative="1" as="geometry">
            <mxPoint x="606.4899999999999" y="520.0000000000002" as="sourcePoint" />
            <mxPoint x="439.9999999999999" y="520.2400000000002" as="targetPoint" />
          </mxGeometry>
        </mxCell>
        <mxCell id="zS7vpeie0VKiPVLgqqQx-13" value="&lt;p style=&quot;margin: 0px ; margin-top: 4px ; text-align: center&quot;&gt;&lt;b&gt;Producto&lt;/b&gt;&lt;/p&gt;&lt;hr size=&quot;1&quot;&gt;&lt;p style=&quot;margin: 0px ; margin-left: 4px&quot;&gt;- idProducto: int&lt;/p&gt;&lt;p style=&quot;margin: 0px ; margin-left: 4px&quot;&gt;- cantidadLatas: int&lt;/p&gt;&lt;p style=&quot;margin: 0px ; margin-left: 4px&quot;&gt;-descripcion: String&lt;/p&gt;&lt;p style=&quot;margin: 0px ; margin-left: 4px&quot;&gt;-fechaElab: String&lt;/p&gt;&lt;p style=&quot;margin: 0px ; margin-left: 4px&quot;&gt;-fechaVenc: String&lt;/p&gt;&lt;p style=&quot;margin: 0px ; margin-left: 4px&quot;&gt;-peso: double&lt;/p&gt;&lt;p style=&quot;margin: 0px ; margin-left: 4px&quot;&gt;-precio: double&lt;/p&gt;&lt;p style=&quot;margin: 0px ; margin-left: 4px&quot;&gt;-pescado: Pescado&lt;br&gt;&lt;/p&gt;&lt;p style=&quot;margin: 0px ; margin-left: 4px&quot;&gt;-productosFacturas: List&amp;lt;ProductoFactura&amp;gt;&lt;/p&gt;&lt;p style=&quot;margin: 0px ; margin-left: 4px&quot;&gt;&lt;br&gt;&lt;/p&gt;&lt;p style=&quot;margin: 0px ; margin-left: 4px&quot;&gt;&lt;br&gt;&lt;/p&gt;&lt;hr size=&quot;1&quot;&gt;&lt;p style=&quot;margin: 0px ; margin-left: 4px&quot;&gt;+ Producto()&lt;/p&gt;&lt;p style=&quot;margin: 0px ; margin-left: 4px&quot;&gt;+ Producto(idProducto, cantidadLatas, descripcion, fechaElab,&lt;/p&gt;&lt;p style=&quot;margin: 0px ; margin-left: 4px&quot;&gt;&amp;nbsp;&amp;nbsp; fechaVenc, peso, precio, pescado)&lt;/p&gt;&lt;p style=&quot;margin: 0px ; margin-left: 4px&quot;&gt;+ getIdProducto(): int&lt;/p&gt;&lt;p style=&quot;margin: 0px ; margin-left: 4px&quot;&gt;+ getCantidadLatas():int&lt;/p&gt;&lt;p style=&quot;margin: 0px ; margin-left: 4px&quot;&gt;+ getDescripcion(): String&lt;/p&gt;&lt;p style=&quot;margin: 0px ; margin-left: 4px&quot;&gt;+ getFechaElab(): String&lt;br&gt;&lt;/p&gt;&lt;p style=&quot;margin: 0px ; margin-left: 4px&quot;&gt;+ getFechaVenc(): String&lt;/p&gt;&lt;p style=&quot;margin: 0px ; margin-left: 4px&quot;&gt;+ getPeso(): double&lt;br&gt;&lt;/p&gt;&lt;p style=&quot;margin: 0px ; margin-left: 4px&quot;&gt;+ getPrecio(): double&lt;/p&gt;&lt;p style=&quot;margin: 0px ; margin-left: 4px&quot;&gt;+ getPescado(): Pescado&lt;/p&gt;&lt;p style=&quot;margin: 0px ; margin-left: 4px&quot;&gt;+ getProductosFacturas(): List&amp;lt;ProductoFactura&amp;gt;&lt;br&gt;&lt;/p&gt;&lt;p style=&quot;margin: 0px ; margin-left: 4px&quot;&gt;+setIdProducto(int): void&lt;/p&gt;&lt;p style=&quot;margin: 0px ; margin-left: 4px&quot;&gt;+setCantidadLatas(int): void&lt;/p&gt;&lt;p style=&quot;margin: 0px ; margin-left: 4px&quot;&gt;+setDescripcion(String): void&lt;/p&gt;&lt;p style=&quot;margin: 0px ; margin-left: 4px&quot;&gt;+setFechaElab(String): void&lt;/p&gt;&lt;p style=&quot;margin: 0px ; margin-left: 4px&quot;&gt;+setFechaVenc(String): void&lt;/p&gt;&lt;p style=&quot;margin: 0px ; margin-left: 4px&quot;&gt;+setPeso(double): void&lt;/p&gt;&lt;p style=&quot;margin: 0px ; margin-left: 4px&quot;&gt;+setPrecio(double): void&lt;/p&gt;&lt;p style=&quot;margin: 0px ; margin-left: 4px&quot;&gt;+setPescado(Pescado): void&lt;/p&gt;&lt;p style=&quot;margin: 0px ; margin-left: 4px&quot;&gt;+setProductosFacturas(List&amp;lt;ProductoFactura&amp;gt;): void&lt;/p&gt;&lt;p style=&quot;margin: 0px ; margin-left: 4px&quot;&gt;&lt;br&gt;&lt;/p&gt;&lt;br&gt;&lt;p style=&quot;margin: 0px ; margin-left: 4px&quot;&gt;&lt;br&gt;&lt;/p&gt;" style="verticalAlign=top;align=left;overflow=fill;fontSize=12;fontFamily=Helvetica;html=1;" parent="1" vertex="1">
          <mxGeometry x="2481" y="-790" width="360" height="530" as="geometry" />
        </mxCell>
        <mxCell id="zS7vpeie0VKiPVLgqqQx-14" value="Use" style="endArrow=open;endSize=12;dashed=1;html=1;exitX=1;exitY=0.25;exitDx=0;exitDy=0;entryX=0;entryY=0.161;entryDx=0;entryDy=0;entryPerimeter=0;" parent="1" source="zS7vpeie0VKiPVLgqqQx-7" target="zS7vpeie0VKiPVLgqqQx-13" edge="1">
          <mxGeometry width="160" relative="1" as="geometry">
            <mxPoint x="1350" y="-550" as="sourcePoint" />
            <mxPoint x="1350" y="-350" as="targetPoint" />
          </mxGeometry>
        </mxCell>
        <mxCell id="zS7vpeie0VKiPVLgqqQx-16" value="Use" style="endArrow=open;endSize=12;dashed=1;html=1;entryX=0;entryY=0.25;entryDx=0;entryDy=0;exitX=0.997;exitY=0.206;exitDx=0;exitDy=0;exitPerimeter=0;" parent="1" target="zS7vpeie0VKiPVLgqqQx-9" edge="1" source="zS7vpeie0VKiPVLgqqQx-2">
          <mxGeometry width="160" relative="1" as="geometry">
            <mxPoint x="890" y="1015" as="sourcePoint" />
            <mxPoint x="1110" y="1160" as="targetPoint" />
          </mxGeometry>
        </mxCell>
        <mxCell id="zS7vpeie0VKiPVLgqqQx-17" value="Use" style="endArrow=open;endSize=12;dashed=1;html=1;exitX=0.5;exitY=1;exitDx=0;exitDy=0;entryX=1;entryY=0;entryDx=0;entryDy=0;" parent="1" source="zS7vpeie0VKiPVLgqqQx-9" target="zS7vpeie0VKiPVLgqqQx-8" edge="1">
          <mxGeometry width="160" relative="1" as="geometry">
            <mxPoint x="1414.5" y="1400" as="sourcePoint" />
            <mxPoint x="1414.5" y="1640" as="targetPoint" />
          </mxGeometry>
        </mxCell>
        <mxCell id="zS7vpeie0VKiPVLgqqQx-12" value="Use" style="endArrow=open;endSize=12;dashed=1;html=1;exitX=0.5;exitY=1;exitDx=0;exitDy=0;entryX=0.5;entryY=0;entryDx=0;entryDy=0;" parent="1" source="zS7vpeie0VKiPVLgqqQx-2" target="zS7vpeie0VKiPVLgqqQx-8" edge="1">
          <mxGeometry width="160" relative="1" as="geometry">
            <mxPoint x="576.4899999999999" y="1447.0000000000002" as="sourcePoint" />
            <mxPoint x="409.9999999999999" y="1447.2400000000002" as="targetPoint" />
          </mxGeometry>
        </mxCell>
        <mxCell id="zS7vpeie0VKiPVLgqqQx-18" value="&lt;p style=&quot;margin: 0px ; margin-top: 4px ; text-align: center&quot;&gt;&lt;b&gt;ProductoFactura&lt;/b&gt;&lt;/p&gt;&lt;hr size=&quot;1&quot;&gt;&lt;p style=&quot;margin: 0px ; margin-left: 4px&quot;&gt;- id: IdProductoFactura&lt;br&gt;&lt;/p&gt;&lt;p style=&quot;margin: 0px ; margin-left: 4px&quot;&gt;- cantidad: int&lt;/p&gt;&lt;div&gt;&amp;nbsp;-precio: double&lt;/div&gt;&lt;div&gt;&amp;nbsp;-factura: Factura&lt;/div&gt;&lt;div&gt;&amp;nbsp;-producto: Producto&lt;br&gt;&lt;/div&gt;&lt;hr size=&quot;1&quot;&gt;&lt;p style=&quot;margin: 0px ; margin-left: 4px&quot;&gt;+ ProductoFactura()&lt;/p&gt;&lt;p style=&quot;margin: 0px ; margin-left: 4px&quot;&gt;+ ProductoFactura(id, cantidad, precio, factura, producto)&lt;/p&gt;&lt;p style=&quot;margin: 0px ; margin-left: 4px&quot;&gt;+ getId(): IdProductoFactura&lt;br&gt;&lt;/p&gt;&lt;p style=&quot;margin: 0px ; margin-left: 4px&quot;&gt;+ getCantidad():int&lt;/p&gt;&amp;nbsp;+ getPrecio(): double&lt;p style=&quot;margin: 0px ; margin-left: 4px&quot;&gt;+ getFactura(): Factura&lt;br&gt;&lt;/p&gt;&lt;p style=&quot;margin: 0px ; margin-left: 4px&quot;&gt;+ getProductos(): Producto&lt;br&gt;&lt;/p&gt;&lt;p style=&quot;margin: 0px ; margin-left: 4px&quot;&gt;+setId(IdProducto): void&lt;/p&gt;&lt;p style=&quot;margin: 0px ; margin-left: 4px&quot;&gt;+setCantidad(int): void&lt;/p&gt;+setPrecio(double): void&lt;p style=&quot;margin: 0px ; margin-left: 4px&quot;&gt;+setFactura(Factura): void&lt;/p&gt;&lt;p style=&quot;margin: 0px ; margin-left: 4px&quot;&gt;+setProductos(Producto): void&lt;/p&gt;&lt;p style=&quot;margin: 0px ; margin-left: 4px&quot;&gt;&lt;br&gt;&lt;/p&gt;&lt;br&gt;&lt;p style=&quot;margin: 0px ; margin-left: 4px&quot;&gt;&lt;br&gt;&lt;/p&gt;" style="verticalAlign=top;align=left;overflow=fill;fontSize=12;fontFamily=Helvetica;html=1;" parent="1" vertex="1">
          <mxGeometry x="2481" y="920" width="360" height="300" as="geometry" />
        </mxCell>
        <mxCell id="HUMUWse89f4DqPjoKc3A-1" value="Use" style="endArrow=open;endSize=12;dashed=1;html=1;exitX=0.5;exitY=0;exitDx=0;exitDy=0;entryX=0.5;entryY=1;entryDx=0;entryDy=0;" parent="1" source="zS7vpeie0VKiPVLgqqQx-18" target="zS7vpeie0VKiPVLgqqQx-13" edge="1">
          <mxGeometry width="160" relative="1" as="geometry">
            <mxPoint x="2681" y="890" as="sourcePoint" />
            <mxPoint x="2666" y="641" as="targetPoint" />
          </mxGeometry>
        </mxCell>
        <mxCell id="HUMUWse89f4DqPjoKc3A-2" value="&lt;p style=&quot;margin: 0px ; margin-top: 4px ; text-align: center&quot;&gt;&lt;b&gt;IdProductoFactura&lt;/b&gt;&lt;/p&gt;&lt;hr size=&quot;1&quot;&gt;&lt;p style=&quot;margin: 0px ; margin-left: 4px&quot;&gt;- idProducto: int&lt;/p&gt;&lt;p style=&quot;margin: 0px ; margin-left: 4px&quot;&gt;- idFactura: int&lt;/p&gt;&lt;p style=&quot;margin: 0px ; margin-left: 4px&quot;&gt;&lt;br&gt;&lt;/p&gt;&lt;hr size=&quot;1&quot;&gt;&lt;p style=&quot;margin: 0px ; margin-left: 4px&quot;&gt;+ IdProductoFactura()&lt;/p&gt;&lt;p style=&quot;margin: 0px ; margin-left: 4px&quot;&gt;+ IdProductoFactura(idProducto, idFactura)&lt;/p&gt;&lt;p style=&quot;margin: 0px ; margin-left: 4px&quot;&gt;+ equals(Object): boolean&lt;/p&gt;&lt;p style=&quot;margin: 0px ; margin-left: 4px&quot;&gt;+ hashCode():int&lt;br&gt;&lt;/p&gt;&lt;p style=&quot;margin: 0px ; margin-left: 4px&quot;&gt;+ getIdProducto(): int&lt;/p&gt;&lt;p style=&quot;margin: 0px ; margin-left: 4px&quot;&gt;+ getIdFactura(): int&lt;/p&gt;&lt;p style=&quot;margin: 0px ; margin-left: 4px&quot;&gt;+ setIdProducto(int): void&lt;/p&gt;&lt;p style=&quot;margin: 0px ; margin-left: 4px&quot;&gt;+setIdFactura(int): void&lt;/p&gt;&lt;p style=&quot;margin: 0px ; margin-left: 4px&quot;&gt;&lt;br&gt;&lt;/p&gt;" style="verticalAlign=top;align=left;overflow=fill;fontSize=12;fontFamily=Helvetica;html=1;" parent="1" vertex="1">
          <mxGeometry x="1880" y="920" width="320" height="310" as="geometry" />
        </mxCell>
        <mxCell id="HUMUWse89f4DqPjoKc3A-4" value="«interface»&lt;br&gt;&lt;b&gt;Serializable&lt;/b&gt;" style="html=1;" parent="1" vertex="1">
          <mxGeometry x="2260" y="1410" width="110" height="50" as="geometry" />
        </mxCell>
        <mxCell id="HUMUWse89f4DqPjoKc3A-10" value="Implements" style="text;align=center;fontStyle=1;verticalAlign=middle;spacingLeft=3;spacingRight=3;strokeColor=none;rotatable=0;points=[[0,0.5],[1,0.5]];portConstraint=eastwest;" parent="1" vertex="1">
          <mxGeometry x="2275" y="1374" width="80" height="26" as="geometry" />
        </mxCell>
        <mxCell id="HUMUWse89f4DqPjoKc3A-11" value="&lt;p style=&quot;margin: 0px ; margin-top: 4px ; text-align: center&quot;&gt;&lt;b&gt;Factura&lt;/b&gt;&lt;/p&gt;&lt;hr size=&quot;1&quot;&gt;&lt;p style=&quot;margin: 0px ; margin-left: 4px&quot;&gt;- idFactura: int&lt;/p&gt;&lt;p style=&quot;margin: 0px ; margin-left: 4px&quot;&gt;- fecha: String&lt;br&gt;&lt;/p&gt;&lt;p style=&quot;margin: 0px ; margin-left: 4px&quot;&gt;- isv: double&lt;br&gt;&lt;/p&gt;&lt;p style=&quot;margin: 0px ; margin-left: 4px&quot;&gt;- lugarVenta: String&lt;br&gt;&lt;/p&gt;&lt;p style=&quot;margin: 0px ; margin-left: 4px&quot;&gt;- total: double&lt;/p&gt;&lt;p style=&quot;margin: 0px ; margin-left: 4px&quot;&gt;- vendedor: Empleado&lt;br&gt;&lt;/p&gt;&lt;p style=&quot;margin: 0px ; margin-left: 4px&quot;&gt;-productosFacturas: List&amp;lt;ProductoFactura&amp;gt;&lt;br&gt;&lt;/p&gt;&lt;p style=&quot;margin: 0px ; margin-left: 4px&quot;&gt;&lt;br&gt;&lt;/p&gt;&lt;hr size=&quot;1&quot;&gt;&lt;p style=&quot;margin: 0px ; margin-left: 4px&quot;&gt;+ Factura()&lt;/p&gt;&lt;p style=&quot;margin: 0px ; margin-left: 4px&quot;&gt;+ Factura(idFactura, fecha, ivs, lugarVenta, total, vendedor)&lt;/p&gt;&lt;p style=&quot;margin: 0px ; margin-left: 4px&quot;&gt;+ getIdFactura(): int&lt;/p&gt;&lt;p style=&quot;margin: 0px ; margin-left: 4px&quot;&gt;+ getFecha(): String&lt;/p&gt;&lt;p style=&quot;margin: 0px ; margin-left: 4px&quot;&gt;+ getIsv(): double&lt;br&gt;&lt;/p&gt;&lt;p style=&quot;margin: 0px ; margin-left: 4px&quot;&gt;+ getLugarVenta(): String&lt;/p&gt;&lt;p style=&quot;margin: 0px ; margin-left: 4px&quot;&gt;+ getTotal(): double&lt;/p&gt;&lt;p style=&quot;margin: 0px ; margin-left: 4px&quot;&gt;+ getVendedor(): Empleado&lt;/p&gt;&lt;p style=&quot;margin: 0px ; margin-left: 4px&quot;&gt;+ getProductosFacturas(): List&amp;lt;ProductoFactura&amp;gt;&lt;br&gt;&lt;/p&gt;&lt;p style=&quot;margin: 0px ; margin-left: 4px&quot;&gt;+ setIdFactura(int): void&lt;/p&gt;&lt;p style=&quot;margin: 0px ; margin-left: 4px&quot;&gt;+ setFecha(String): void&lt;/p&gt;&lt;p style=&quot;margin: 0px ; margin-left: 4px&quot;&gt;+ setIsv(double): void&lt;/p&gt;&lt;p style=&quot;margin: 0px ; margin-left: 4px&quot;&gt;+ setLugarVenta(String): void&lt;/p&gt;&lt;p style=&quot;margin: 0px ; margin-left: 4px&quot;&gt;+ setTotal(double): void&lt;/p&gt;&lt;p style=&quot;margin: 0px ; margin-left: 4px&quot;&gt;+ setVendedor(Empleado): void&lt;/p&gt;&lt;p style=&quot;margin: 0px ; margin-left: 4px&quot;&gt;+ setProductosFacturas(List&amp;lt;ProductoFactura&amp;gt;): void&lt;/p&gt;&lt;p style=&quot;margin: 0px ; margin-left: 4px&quot;&gt;&lt;br&gt;&lt;/p&gt;&lt;p style=&quot;margin: 0px ; margin-left: 4px&quot;&gt;&lt;br&gt;&lt;/p&gt;&lt;p style=&quot;margin: 0px ; margin-left: 4px&quot;&gt;&lt;br&gt;&lt;/p&gt;" style="verticalAlign=top;align=left;overflow=fill;fontSize=12;fontFamily=Helvetica;html=1;" parent="1" vertex="1">
          <mxGeometry x="2481" y="1840" width="360" height="420" as="geometry" />
        </mxCell>
        <mxCell id="HUMUWse89f4DqPjoKc3A-12" value="Use" style="endArrow=open;endSize=12;dashed=1;html=1;entryX=0.5;entryY=1;entryDx=0;entryDy=0;exitX=0.5;exitY=0;exitDx=0;exitDy=0;" parent="1" source="HUMUWse89f4DqPjoKc3A-11" target="zS7vpeie0VKiPVLgqqQx-18" edge="1">
          <mxGeometry width="160" relative="1" as="geometry">
            <mxPoint x="2821" y="1372.5" as="sourcePoint" />
            <mxPoint x="2421" y="1370" as="targetPoint" />
          </mxGeometry>
        </mxCell>
        <mxCell id="HUMUWse89f4DqPjoKc3A-14" value="Use" style="endArrow=open;endSize=12;dashed=1;html=1;entryX=1;entryY=0.25;entryDx=0;entryDy=0;exitX=0;exitY=0.685;exitDx=0;exitDy=0;exitPerimeter=0;" parent="1" source="HUMUWse89f4DqPjoKc3A-11" target="zS7vpeie0VKiPVLgqqQx-8" edge="1">
          <mxGeometry width="160" relative="1" as="geometry">
            <mxPoint x="1990" y="1970" as="sourcePoint" />
            <mxPoint x="1480" y="2380" as="targetPoint" />
          </mxGeometry>
        </mxCell>
        <mxCell id="HJ1JGhIVuP_hYRb9gxJk-1" value="La clase Controller Usa todas estas clases" style="text;html=1;strokeColor=#B20000;align=center;verticalAlign=middle;whiteSpace=wrap;rounded=0;fontColor=#ffffff;strokeWidth=1;fontSize=16;fillColor=#e51400;" parent="1" vertex="1">
          <mxGeometry x="3910" y="2330" width="320" height="50" as="geometry" />
        </mxCell>
        <mxCell id="HJ1JGhIVuP_hYRb9gxJk-2" value="&lt;p style=&quot;margin: 0px ; margin-top: 4px ; text-align: center&quot;&gt;&lt;b&gt;Controller&lt;/b&gt;&lt;/p&gt;&lt;hr size=&quot;1&quot;&gt;&lt;p style=&quot;margin: 0px ; margin-left: 4px&quot;&gt;serviceCargamento: ServiceCargamento&lt;/p&gt;&lt;p style=&quot;margin: 0px ; margin-left: 4px&quot;&gt;serviceEmpleado: ServiceEmpleado&lt;/p&gt;&lt;p style=&quot;margin: 0px ; margin-left: 4px&quot;&gt;serviceFactura: ServiceFactura&lt;/p&gt;&lt;p style=&quot;margin: 0px ; margin-left: 4px&quot;&gt;serviceLimpieza: ServiceLimpieza&lt;/p&gt;&lt;p style=&quot;margin: 0px ; margin-left: 4px&quot;&gt;servicePescado: ServicePescado&lt;/p&gt;&lt;p style=&quot;margin: 0px ; margin-left: 4px&quot;&gt;serviceProducto: ServiceProducto&lt;/p&gt;&lt;p style=&quot;margin: 0px ; margin-left: 4px&quot;&gt;serviceProductoFactura: ServiceProductoFactura&lt;/p&gt;&lt;p style=&quot;margin: 0px ; margin-left: 4px&quot;&gt;serviceProveedor: ServiceProveedor&lt;/p&gt;&lt;p style=&quot;margin: 0px ; margin-left: 4px&quot;&gt;passwordEncoder: PasswordEncoder&lt;br&gt;&lt;/p&gt;&lt;hr size=&quot;1&quot;&gt;&lt;div&gt;+ index(): String&lt;/div&gt;&lt;div&gt;+ inicio(): String&lt;/div&gt;&lt;div&gt;+ facturacion(): String&lt;/div&gt;&lt;div&gt;+ consulta(): String&lt;/div&gt;&lt;div&gt;+ acercaDe(): String&lt;/div&gt;&lt;div&gt;+ encriptarContrasenia(): String&lt;/div&gt;&lt;div&gt;+ cargamento(Model): String&lt;/div&gt;&lt;div&gt;+ crearCargamento(int, int, String, double, double, int, int, int): String&lt;/div&gt;&lt;div&gt;+ listaCargamento(Model): String&lt;/div&gt;&lt;div&gt;+ buscarCargamento(int): String&lt;/div&gt;&lt;div&gt;+ detalleCargamento(int, Model): String&lt;/div&gt;&lt;div&gt;+ empleado(): String&lt;/div&gt;&lt;div&gt;+ crearEmpleado(int, String, String, String, String, String, String, String, &lt;br&gt;&lt;/div&gt;&lt;div&gt;&amp;nbsp;&amp;nbsp;&amp;nbsp; String): String&lt;/div&gt;&lt;div&gt;+ listaEmpleados(Model): String&lt;/div&gt;&lt;div&gt;+ buscarEmpleado(int): String&lt;/div&gt;&lt;div&gt;&lt;div&gt;+ detalleEmpleado(int, Model): String&lt;/div&gt;&lt;div&gt;+ factura(Model): String&lt;/div&gt;&lt;div&gt;+ crearFactura(int, String, String, int): String&lt;/div&gt;&lt;div&gt;+ listaFacturas(Model): String&lt;/div&gt;&lt;div&gt;+ buscarFactura(int): String&lt;/div&gt;&lt;div&gt;+ detalleFactura(int): String&lt;/div&gt;&lt;div&gt;+ cerrarFactura(int): String&lt;/div&gt;&lt;div&gt;+ limpieza(Model): String&lt;/div&gt;&lt;div&gt;+ crearLimpieza(int, String, String, int, int, int ): String&lt;/div&gt;&lt;div&gt;+ listaLimpiezas(Model): String&lt;/div&gt;&lt;div&gt;+ buscarLimpieza(int): String&lt;/div&gt;&lt;div&gt;+ detalleLimpieza(int, Model): String&lt;/div&gt;&lt;div&gt;+ pescado(): String&lt;/div&gt;&lt;div&gt;+ crearPescado(int, String, String, double, String): String&lt;/div&gt;&lt;div&gt;+ listaPescados(Model): String&lt;/div&gt;&lt;div&gt;+ buscarPescado(int): String&lt;/div&gt;&lt;div&gt;+ detallePescado(int, Model): String&lt;/div&gt;&lt;div&gt;+ producto(Model): String&lt;/div&gt;&lt;div&gt;+ crearProducto(int, int, String, String, String, double, double, int): String&lt;/div&gt;&lt;div&gt;+ listaProductos(Model): String&lt;/div&gt;&lt;div&gt;+ buscarProducto(int): String&lt;/div&gt;&lt;div&gt;+ detalleProducto(int, Model): String&lt;/div&gt;&lt;div&gt;+ productoFactura(Model): String&lt;/div&gt;&lt;div&gt;+ crearProductoFactura(int, int, int): String&lt;/div&gt;&lt;div&gt;+ listaProductoFactura(): String&lt;/div&gt;&lt;div&gt;+ buscarProductoFactura(int, int, ): String&lt;/div&gt;&lt;div&gt;+ proveedor(): String&lt;/div&gt;&lt;div&gt;+ crearProveedor(int, String): String&lt;/div&gt;&lt;div&gt;+ listaProveedor(Model): String&lt;/div&gt;&lt;div&gt;+ buscarProveedor(int): String&lt;/div&gt;&lt;div&gt;+ detalleProveedor(int, Model): String&lt;/div&gt;&lt;div&gt;&lt;br&gt;&lt;/div&gt;&lt;div&gt;&lt;br&gt;&lt;/div&gt;&lt;/div&gt;&lt;div&gt;&lt;br&gt;&lt;/div&gt;&lt;div&gt;&lt;br&gt;&lt;/div&gt;&lt;div&gt;&lt;br&gt;&lt;/div&gt;&lt;p style=&quot;margin: 0px ; margin-left: 4px&quot;&gt;&lt;br&gt;&lt;/p&gt;" style="verticalAlign=top;align=left;overflow=fill;fontSize=12;fontFamily=Helvetica;html=1;" parent="1" vertex="1">
          <mxGeometry x="3880" y="2480" width="400" height="880" as="geometry" />
        </mxCell>
        <mxCell id="S4FQM-zOlW_nF9xKUVDt-1" value="&lt;p style=&quot;margin: 0px ; margin-top: 4px ; text-align: center&quot;&gt;&lt;b&gt;ServiceCargamento&lt;/b&gt;&lt;br&gt;&lt;/p&gt;&lt;hr size=&quot;1&quot;&gt;&lt;p style=&quot;margin: 0px ; margin-left: 4px&quot;&gt;repositoryCargamento: RepositoryCargamento&lt;br&gt;&lt;/p&gt;&lt;hr size=&quot;1&quot;&gt;&lt;p style=&quot;margin: 0px ; margin-left: 4px&quot;&gt;+ crearCargamento(Cargamento): Cargamento&lt;/p&gt;&lt;p style=&quot;margin: 0px ; margin-left: 4px&quot;&gt;+ listaCargamentos(): List&amp;lt;Cargamento&amp;gt;&lt;/p&gt;&lt;p style=&quot;margin: 0px ; margin-left: 4px&quot;&gt;+ buscarCargamento(int): Cargamento&lt;/p&gt;" style="verticalAlign=top;align=left;overflow=fill;fontSize=12;fontFamily=Helvetica;html=1;" vertex="1" parent="1">
          <mxGeometry x="80" y="1960" width="330" height="220" as="geometry" />
        </mxCell>
        <mxCell id="S4FQM-zOlW_nF9xKUVDt-2" value="Use" style="endArrow=open;endSize=12;dashed=1;html=1;exitX=0.5;exitY=0;exitDx=0;exitDy=0;entryX=0.5;entryY=1;entryDx=0;entryDy=0;" edge="1" parent="1" source="S4FQM-zOlW_nF9xKUVDt-1" target="zS7vpeie0VKiPVLgqqQx-2">
          <mxGeometry width="160" relative="1" as="geometry">
            <mxPoint x="690" y="2130" as="sourcePoint" />
            <mxPoint x="223.00000000000045" y="1550" as="targetPoint" />
          </mxGeometry>
        </mxCell>
        <mxCell id="S4FQM-zOlW_nF9xKUVDt-3" value="&lt;p style=&quot;margin: 0px ; margin-top: 4px ; text-align: center&quot;&gt;&lt;b&gt;ServiceProveedor&lt;/b&gt;&lt;br&gt;&lt;/p&gt;&lt;hr size=&quot;1&quot;&gt;&lt;p style=&quot;margin: 0px ; margin-left: 4px&quot;&gt;repositoryProveedor: RepositoryProveedor&lt;br&gt;&lt;/p&gt;&lt;hr size=&quot;1&quot;&gt;&lt;p style=&quot;margin: 0px ; margin-left: 4px&quot;&gt;+ crearProveedor(Proveedor): Proveedor&lt;/p&gt;&lt;p style=&quot;margin: 0px ; margin-left: 4px&quot;&gt;+ listaProveedores(): List&amp;lt;Proveedor&amp;gt;&lt;/p&gt;&lt;p style=&quot;margin: 0px ; margin-left: 4px&quot;&gt;+ buscarProveedor(int): Proveedor&lt;/p&gt;" style="verticalAlign=top;align=left;overflow=fill;fontSize=12;fontFamily=Helvetica;html=1;" vertex="1" parent="1">
          <mxGeometry x="-1370" y="920" width="330" height="200" as="geometry" />
        </mxCell>
        <mxCell id="S4FQM-zOlW_nF9xKUVDt-4" value="Use" style="endArrow=open;endSize=12;dashed=1;html=1;entryX=0;entryY=0.25;entryDx=0;entryDy=0;exitX=1;exitY=0.25;exitDx=0;exitDy=0;" edge="1" parent="1" source="S4FQM-zOlW_nF9xKUVDt-3" target="zS7vpeie0VKiPVLgqqQx-1">
          <mxGeometry width="160" relative="1" as="geometry">
            <mxPoint x="-970" y="1030" as="sourcePoint" />
            <mxPoint x="-1350" y="1280.2400000000002" as="targetPoint" />
          </mxGeometry>
        </mxCell>
        <mxCell id="S4FQM-zOlW_nF9xKUVDt-5" value="&lt;p style=&quot;margin: 0px ; margin-top: 4px ; text-align: center&quot;&gt;&lt;b&gt;ServicePescado&lt;/b&gt;&lt;br&gt;&lt;/p&gt;&lt;hr size=&quot;1&quot;&gt;&lt;p style=&quot;margin: 0px ; margin-left: 4px&quot;&gt;repositoryPescado: RepositoryPescado&lt;br&gt;&lt;/p&gt;&lt;hr size=&quot;1&quot;&gt;&lt;p style=&quot;margin: 0px ; margin-left: 4px&quot;&gt;+ crearPescado(Pescado): Pescado&lt;/p&gt;&lt;p style=&quot;margin: 0px ; margin-left: 4px&quot;&gt;+ listaPescados(): List&amp;lt;Pescado&amp;gt;&lt;/p&gt;&lt;p style=&quot;margin: 0px ; margin-left: 4px&quot;&gt;+ buscarPescado(int): Pescado&lt;/p&gt;" style="verticalAlign=top;align=left;overflow=fill;fontSize=12;fontFamily=Helvetica;html=1;" vertex="1" parent="1">
          <mxGeometry x="360" y="-1270" width="330" height="200" as="geometry" />
        </mxCell>
        <mxCell id="S4FQM-zOlW_nF9xKUVDt-6" value="Use" style="endArrow=open;endSize=12;dashed=1;html=1;exitX=0.5;exitY=1;exitDx=0;exitDy=0;" edge="1" parent="1" source="S4FQM-zOlW_nF9xKUVDt-5" target="zS7vpeie0VKiPVLgqqQx-7">
          <mxGeometry width="160" relative="1" as="geometry">
            <mxPoint x="506.49000000000035" y="-940" as="sourcePoint" />
            <mxPoint x="530" y="-830" as="targetPoint" />
          </mxGeometry>
        </mxCell>
        <mxCell id="S4FQM-zOlW_nF9xKUVDt-7" value="&lt;p style=&quot;margin: 0px ; margin-top: 4px ; text-align: center&quot;&gt;&lt;b&gt;ServiceEmpleado&lt;/b&gt;&lt;br&gt;&lt;/p&gt;&lt;hr size=&quot;1&quot;&gt;&lt;p style=&quot;margin: 0px ; margin-left: 4px&quot;&gt;repositoryEmpleado: RepositoryEmpleado&lt;br&gt;&lt;/p&gt;&lt;hr size=&quot;1&quot;&gt;&lt;p style=&quot;margin: 0px ; margin-left: 4px&quot;&gt;+ crearEmpleado(Empleado): Empleado&lt;/p&gt;&lt;p style=&quot;margin: 0px ; margin-left: 4px&quot;&gt;+ listaEmpleados(): List&amp;lt;Empleado&amp;gt;&lt;/p&gt;&lt;p style=&quot;margin: 0px ; margin-left: 4px&quot;&gt;+ buscarEmpleado(int): Empleado&lt;/p&gt;" style="verticalAlign=top;align=left;overflow=fill;fontSize=12;fontFamily=Helvetica;html=1;" vertex="1" parent="1">
          <mxGeometry x="827" y="2923" width="330" height="200" as="geometry" />
        </mxCell>
        <mxCell id="S4FQM-zOlW_nF9xKUVDt-8" value="Use" style="endArrow=open;endSize=12;dashed=1;html=1;entryX=0.5;entryY=1;entryDx=0;entryDy=0;" edge="1" parent="1" source="S4FQM-zOlW_nF9xKUVDt-7" target="zS7vpeie0VKiPVLgqqQx-8">
          <mxGeometry width="160" relative="1" as="geometry">
            <mxPoint x="290" y="2957.5" as="sourcePoint" />
            <mxPoint x="1133.000000000001" y="2730" as="targetPoint" />
          </mxGeometry>
        </mxCell>
        <mxCell id="S4FQM-zOlW_nF9xKUVDt-10" value="&lt;p style=&quot;margin: 0px ; margin-top: 4px ; text-align: center&quot;&gt;&lt;b&gt;ServiceLimpieza&lt;/b&gt;&lt;br&gt;&lt;/p&gt;&lt;hr size=&quot;1&quot;&gt;&lt;p style=&quot;margin: 0px ; margin-left: 4px&quot;&gt;repositoryLimpieza: RepositoryLimpieza&lt;br&gt;&lt;/p&gt;&lt;hr size=&quot;1&quot;&gt;&lt;p style=&quot;margin: 0px ; margin-left: 4px&quot;&gt;+ crearLimpieza(Limpieza): Limpieza&lt;/p&gt;&lt;p style=&quot;margin: 0px ; margin-left: 4px&quot;&gt;+ listaLimpiezas(): List&amp;lt;Limpieza&amp;gt;&lt;/p&gt;&lt;p style=&quot;margin: 0px ; margin-left: 4px&quot;&gt;+ buscarLimpieza(int): Limpieza&lt;/p&gt;" style="verticalAlign=top;align=left;overflow=fill;fontSize=12;fontFamily=Helvetica;html=1;" vertex="1" parent="1">
          <mxGeometry x="1241" y="440" width="330" height="200" as="geometry" />
        </mxCell>
        <mxCell id="S4FQM-zOlW_nF9xKUVDt-11" value="Use" style="endArrow=open;endSize=12;dashed=1;html=1;exitX=0.5;exitY=1;exitDx=0;exitDy=0;entryX=0.481;entryY=-0.004;entryDx=0;entryDy=0;entryPerimeter=0;" edge="1" parent="1" source="S4FQM-zOlW_nF9xKUVDt-10" target="zS7vpeie0VKiPVLgqqQx-9">
          <mxGeometry width="160" relative="1" as="geometry">
            <mxPoint x="1786.4900000000018" y="830.0000000000005" as="sourcePoint" />
            <mxPoint x="1060.0000000000002" y="830.2400000000002" as="targetPoint" />
          </mxGeometry>
        </mxCell>
        <mxCell id="S4FQM-zOlW_nF9xKUVDt-12" value="&lt;p style=&quot;margin: 0px ; margin-top: 4px ; text-align: center&quot;&gt;&lt;b&gt;ServiceProducto&lt;/b&gt;&lt;br&gt;&lt;/p&gt;&lt;hr size=&quot;1&quot;&gt;&lt;p style=&quot;margin: 0px ; margin-left: 4px&quot;&gt;repositoryProducto: RepositoryProducto&lt;br&gt;&lt;/p&gt;&lt;hr size=&quot;1&quot;&gt;&amp;nbsp;+ crearProducto(Producto): Producto&lt;p style=&quot;margin: 0px ; margin-left: 4px&quot;&gt;+ listaProductos(): List&amp;lt;Producto&amp;gt;&lt;/p&gt;&lt;p style=&quot;margin: 0px ; margin-left: 4px&quot;&gt;+ buscarProducto(int): Producto&lt;/p&gt;" style="verticalAlign=top;align=left;overflow=fill;fontSize=12;fontFamily=Helvetica;html=1;" vertex="1" parent="1">
          <mxGeometry x="2480" y="-1280" width="330" height="200" as="geometry" />
        </mxCell>
        <mxCell id="S4FQM-zOlW_nF9xKUVDt-13" value="Use" style="endArrow=open;endSize=12;dashed=1;html=1;exitX=0.5;exitY=1;exitDx=0;exitDy=0;" edge="1" parent="1" source="S4FQM-zOlW_nF9xKUVDt-12">
          <mxGeometry width="160" relative="1" as="geometry">
            <mxPoint x="2300" y="-875.3299999999999" as="sourcePoint" />
            <mxPoint x="2649" y="-791" as="targetPoint" />
          </mxGeometry>
        </mxCell>
        <mxCell id="S4FQM-zOlW_nF9xKUVDt-16" value="" style="endArrow=open;endFill=1;endSize=12;html=1;exitX=0.5;exitY=1;exitDx=0;exitDy=0;entryX=0;entryY=0;entryDx=0;entryDy=0;" edge="1" parent="1" source="HUMUWse89f4DqPjoKc3A-2" target="HUMUWse89f4DqPjoKc3A-4">
          <mxGeometry width="160" relative="1" as="geometry">
            <mxPoint x="2050" y="1386.29" as="sourcePoint" />
            <mxPoint x="2210" y="1386.29" as="targetPoint" />
          </mxGeometry>
        </mxCell>
        <mxCell id="S4FQM-zOlW_nF9xKUVDt-17" value="" style="endArrow=open;endFill=1;endSize=12;html=1;exitX=0.5;exitY=1;exitDx=0;exitDy=0;entryX=1;entryY=0;entryDx=0;entryDy=0;" edge="1" parent="1" source="zS7vpeie0VKiPVLgqqQx-18" target="HUMUWse89f4DqPjoKc3A-4">
          <mxGeometry width="160" relative="1" as="geometry">
            <mxPoint x="2370" y="1250" as="sourcePoint" />
            <mxPoint x="2590" y="1430" as="targetPoint" />
          </mxGeometry>
        </mxCell>
        <mxCell id="S4FQM-zOlW_nF9xKUVDt-18" value="&lt;p style=&quot;margin: 0px ; margin-top: 4px ; text-align: center&quot;&gt;&lt;b&gt;ServiceFactura&lt;/b&gt;&lt;br&gt;&lt;/p&gt;&lt;hr size=&quot;1&quot;&gt;&lt;p style=&quot;margin: 0px ; margin-left: 4px&quot;&gt;repositoryFactura: RepositoryFactura&lt;/p&gt;&lt;hr size=&quot;1&quot;&gt;&lt;p style=&quot;margin: 0px ; margin-left: 4px&quot;&gt;+ crearFactura(Factura): Factura&lt;/p&gt;&lt;p style=&quot;margin: 0px ; margin-left: 4px&quot;&gt;+ listaFacturas(): List&amp;lt;Factura&amp;gt;&lt;/p&gt;&lt;p style=&quot;margin: 0px ; margin-left: 4px&quot;&gt;+ buscarFactura(int): Factura&lt;/p&gt;" style="verticalAlign=top;align=left;overflow=fill;fontSize=12;fontFamily=Helvetica;html=1;" vertex="1" parent="1">
          <mxGeometry x="2481" y="2600" width="359" height="200" as="geometry" />
        </mxCell>
        <mxCell id="S4FQM-zOlW_nF9xKUVDt-19" value="Use" style="endArrow=open;endSize=12;dashed=1;html=1;entryX=0.5;entryY=0;entryDx=0;entryDy=0;exitX=0.5;exitY=1;exitDx=0;exitDy=0;" edge="1" parent="1" source="HUMUWse89f4DqPjoKc3A-11" target="S4FQM-zOlW_nF9xKUVDt-18">
          <mxGeometry width="160" relative="1" as="geometry">
            <mxPoint x="2600" y="2280" as="sourcePoint" />
            <mxPoint x="1650" y="2490" as="targetPoint" />
          </mxGeometry>
        </mxCell>
        <mxCell id="S4FQM-zOlW_nF9xKUVDt-20" value="&lt;p style=&quot;margin: 0px ; margin-top: 4px ; text-align: center&quot;&gt;&lt;b&gt;ServiceProductoFactura&lt;/b&gt;&lt;br&gt;&lt;/p&gt;&lt;hr size=&quot;1&quot;&gt;&lt;p style=&quot;margin: 0px ; margin-left: 4px&quot;&gt;repositoryProductoFactura: RepositoryProductoFactura&lt;/p&gt;&lt;hr size=&quot;1&quot;&gt;&lt;p style=&quot;margin: 0px ; margin-left: 4px&quot;&gt;+ crearProductoFactura(ProductoFactura): ProductoFactura&lt;/p&gt;&lt;p style=&quot;margin: 0px ; margin-left: 4px&quot;&gt;+ obtenerProductoFactura(): List&amp;lt;ProductoFactura&amp;gt;&lt;/p&gt;&lt;p style=&quot;margin: 0px ; margin-left: 4px&quot;&gt;+ buscarProductoFactura(IdProductoFactura): ProductoFactura&lt;/p&gt;" style="verticalAlign=top;align=left;overflow=fill;fontSize=12;fontFamily=Helvetica;html=1;" vertex="1" parent="1">
          <mxGeometry x="3240" y="920" width="359" height="200" as="geometry" />
        </mxCell>
        <mxCell id="S4FQM-zOlW_nF9xKUVDt-21" value="Use" style="endArrow=open;endSize=12;dashed=1;html=1;exitX=0;exitY=0.25;exitDx=0;exitDy=0;entryX=1.002;entryY=0.173;entryDx=0;entryDy=0;entryPerimeter=0;" edge="1" parent="1" source="S4FQM-zOlW_nF9xKUVDt-20" target="zS7vpeie0VKiPVLgqqQx-18">
          <mxGeometry width="160" relative="1" as="geometry">
            <mxPoint x="3200" y="978" as="sourcePoint" />
            <mxPoint x="2900" y="1030" as="targetPoint" />
          </mxGeometry>
        </mxCell>
        <mxCell id="S4FQM-zOlW_nF9xKUVDt-23" value="&lt;p style=&quot;margin: 0px ; margin-top: 4px ; text-align: center&quot;&gt;&lt;i&gt;&amp;lt;&amp;lt;Interface&amp;gt;&amp;gt;&lt;/i&gt;&lt;br&gt;RepositoryProveedor&lt;/p&gt;&lt;hr size=&quot;1&quot;&gt;&lt;hr size=&quot;1&quot;&gt;+ findById(int): Proveedor" style="verticalAlign=top;align=left;overflow=fill;fontSize=12;fontFamily=Helvetica;html=1;" vertex="1" parent="1">
          <mxGeometry x="-1870" y="920" width="190" height="140" as="geometry" />
        </mxCell>
        <mxCell id="S4FQM-zOlW_nF9xKUVDt-24" value="&lt;p style=&quot;margin: 0px ; margin-top: 4px ; text-align: center&quot;&gt;&lt;b&gt;JpaRepository&lt;/b&gt;&lt;br&gt;&lt;/p&gt;&lt;hr size=&quot;1&quot;&gt;&lt;div style=&quot;height: 2px&quot;&gt;&lt;/div&gt;" style="verticalAlign=top;align=left;overflow=fill;fontSize=12;fontFamily=Helvetica;html=1;" vertex="1" parent="1">
          <mxGeometry x="-2430" y="930" width="140" height="60" as="geometry" />
        </mxCell>
        <mxCell id="S4FQM-zOlW_nF9xKUVDt-25" value="Extends" style="endArrow=block;endSize=16;endFill=0;html=1;entryX=1;entryY=0.25;entryDx=0;entryDy=0;exitX=-0.011;exitY=0.184;exitDx=0;exitDy=0;exitPerimeter=0;" edge="1" parent="1" source="S4FQM-zOlW_nF9xKUVDt-23" target="S4FQM-zOlW_nF9xKUVDt-24">
          <mxGeometry width="160" relative="1" as="geometry">
            <mxPoint x="-2040" y="980" as="sourcePoint" />
            <mxPoint x="-2200" y="980" as="targetPoint" />
          </mxGeometry>
        </mxCell>
        <mxCell id="S4FQM-zOlW_nF9xKUVDt-27" value="Use" style="endArrow=open;endSize=12;dashed=1;html=1;exitX=-0.002;exitY=0.19;exitDx=0;exitDy=0;entryX=1;entryY=0.25;entryDx=0;entryDy=0;exitPerimeter=0;" edge="1" parent="1" source="S4FQM-zOlW_nF9xKUVDt-3" target="S4FQM-zOlW_nF9xKUVDt-23">
          <mxGeometry width="160" relative="1" as="geometry">
            <mxPoint x="-1390" y="970" as="sourcePoint" />
            <mxPoint x="-1660" y="1010" as="targetPoint" />
          </mxGeometry>
        </mxCell>
        <mxCell id="S4FQM-zOlW_nF9xKUVDt-28" value="&lt;p style=&quot;margin: 0px ; margin-top: 4px ; text-align: center&quot;&gt;&lt;i&gt;&amp;lt;&amp;lt;Interface&amp;gt;&amp;gt;&lt;/i&gt;&lt;br&gt;RepositoryPescado&lt;/p&gt;&lt;hr size=&quot;1&quot;&gt;&lt;hr size=&quot;1&quot;&gt;+ findById(int): Pescado" style="verticalAlign=top;align=left;overflow=fill;fontSize=12;fontFamily=Helvetica;html=1;" vertex="1" parent="1">
          <mxGeometry x="-160" y="-1270" width="190" height="140" as="geometry" />
        </mxCell>
        <mxCell id="S4FQM-zOlW_nF9xKUVDt-29" value="&lt;p style=&quot;margin: 0px ; margin-top: 4px ; text-align: center&quot;&gt;&lt;b&gt;JpaRepository&lt;/b&gt;&lt;br&gt;&lt;/p&gt;&lt;hr size=&quot;1&quot;&gt;&lt;div style=&quot;height: 2px&quot;&gt;&lt;/div&gt;" style="verticalAlign=top;align=left;overflow=fill;fontSize=12;fontFamily=Helvetica;html=1;" vertex="1" parent="1">
          <mxGeometry x="-720" y="-1260" width="140" height="60" as="geometry" />
        </mxCell>
        <mxCell id="S4FQM-zOlW_nF9xKUVDt-30" value="Extends" style="endArrow=block;endSize=16;endFill=0;html=1;entryX=1;entryY=0.25;entryDx=0;entryDy=0;exitX=-0.011;exitY=0.184;exitDx=0;exitDy=0;exitPerimeter=0;" edge="1" parent="1" source="S4FQM-zOlW_nF9xKUVDt-28" target="S4FQM-zOlW_nF9xKUVDt-29">
          <mxGeometry width="160" relative="1" as="geometry">
            <mxPoint x="-330" y="-1210" as="sourcePoint" />
            <mxPoint x="-490" y="-1210" as="targetPoint" />
          </mxGeometry>
        </mxCell>
        <mxCell id="S4FQM-zOlW_nF9xKUVDt-31" value="Use" style="endArrow=open;endSize=12;dashed=1;html=1;exitX=0.003;exitY=0.186;exitDx=0;exitDy=0;entryX=1;entryY=0.25;entryDx=0;entryDy=0;exitPerimeter=0;" edge="1" parent="1" target="S4FQM-zOlW_nF9xKUVDt-28" source="S4FQM-zOlW_nF9xKUVDt-5">
          <mxGeometry width="160" relative="1" as="geometry">
            <mxPoint x="339.34000000000015" y="-1232" as="sourcePoint" />
            <mxPoint x="50" y="-1180" as="targetPoint" />
          </mxGeometry>
        </mxCell>
        <mxCell id="S4FQM-zOlW_nF9xKUVDt-32" value="&lt;p style=&quot;margin: 0px ; margin-top: 4px ; text-align: center&quot;&gt;&lt;i&gt;&amp;lt;&amp;lt;Interface&amp;gt;&amp;gt;&lt;/i&gt;&lt;br&gt;RepositoryCargamento&lt;/p&gt;&lt;hr size=&quot;1&quot;&gt;&lt;hr size=&quot;1&quot;&gt;+ findById(int): Cargamento" style="verticalAlign=top;align=left;overflow=fill;fontSize=12;fontFamily=Helvetica;html=1;" vertex="1" parent="1">
          <mxGeometry x="-440" y="1970" width="190" height="140" as="geometry" />
        </mxCell>
        <mxCell id="S4FQM-zOlW_nF9xKUVDt-33" value="&lt;p style=&quot;margin: 0px ; margin-top: 4px ; text-align: center&quot;&gt;&lt;b&gt;JpaRepository&lt;/b&gt;&lt;br&gt;&lt;/p&gt;&lt;hr size=&quot;1&quot;&gt;&lt;div style=&quot;height: 2px&quot;&gt;&lt;/div&gt;" style="verticalAlign=top;align=left;overflow=fill;fontSize=12;fontFamily=Helvetica;html=1;" vertex="1" parent="1">
          <mxGeometry x="-1000" y="1980" width="140" height="60" as="geometry" />
        </mxCell>
        <mxCell id="S4FQM-zOlW_nF9xKUVDt-34" value="Extends" style="endArrow=block;endSize=16;endFill=0;html=1;entryX=1;entryY=0.25;entryDx=0;entryDy=0;exitX=-0.011;exitY=0.184;exitDx=0;exitDy=0;exitPerimeter=0;" edge="1" parent="1" source="S4FQM-zOlW_nF9xKUVDt-32" target="S4FQM-zOlW_nF9xKUVDt-33">
          <mxGeometry width="160" relative="1" as="geometry">
            <mxPoint x="-610" y="2030" as="sourcePoint" />
            <mxPoint x="-770" y="2030" as="targetPoint" />
          </mxGeometry>
        </mxCell>
        <mxCell id="S4FQM-zOlW_nF9xKUVDt-35" value="Use" style="endArrow=open;endSize=12;dashed=1;html=1;exitX=-0.004;exitY=0.212;exitDx=0;exitDy=0;entryX=1;entryY=0.25;entryDx=0;entryDy=0;exitPerimeter=0;" edge="1" parent="1" target="S4FQM-zOlW_nF9xKUVDt-32" source="S4FQM-zOlW_nF9xKUVDt-1">
          <mxGeometry width="160" relative="1" as="geometry">
            <mxPoint x="59.340000000000146" y="2008" as="sourcePoint" />
            <mxPoint x="-230" y="2060" as="targetPoint" />
          </mxGeometry>
        </mxCell>
        <mxCell id="S4FQM-zOlW_nF9xKUVDt-36" value="&lt;p style=&quot;margin: 0px ; margin-top: 4px ; text-align: center&quot;&gt;&lt;i&gt;&amp;lt;&amp;lt;Interface&amp;gt;&amp;gt;&lt;/i&gt;&lt;br&gt;RepositoryEmpleado&lt;/p&gt;&lt;hr size=&quot;1&quot;&gt;&lt;hr size=&quot;1&quot;&gt;+ findById(int): Empleado" style="verticalAlign=top;align=left;overflow=fill;fontSize=12;fontFamily=Helvetica;html=1;" vertex="1" parent="1">
          <mxGeometry x="328" y="2930" width="190" height="140" as="geometry" />
        </mxCell>
        <mxCell id="S4FQM-zOlW_nF9xKUVDt-37" value="&lt;p style=&quot;margin: 0px ; margin-top: 4px ; text-align: center&quot;&gt;&lt;b&gt;JpaRepository&lt;/b&gt;&lt;br&gt;&lt;/p&gt;&lt;hr size=&quot;1&quot;&gt;&lt;div style=&quot;height: 2px&quot;&gt;&lt;/div&gt;" style="verticalAlign=top;align=left;overflow=fill;fontSize=12;fontFamily=Helvetica;html=1;" vertex="1" parent="1">
          <mxGeometry x="-232" y="2940" width="140" height="60" as="geometry" />
        </mxCell>
        <mxCell id="S4FQM-zOlW_nF9xKUVDt-38" value="Extends" style="endArrow=block;endSize=16;endFill=0;html=1;entryX=1;entryY=0.25;entryDx=0;entryDy=0;exitX=-0.011;exitY=0.184;exitDx=0;exitDy=0;exitPerimeter=0;" edge="1" parent="1" source="S4FQM-zOlW_nF9xKUVDt-36" target="S4FQM-zOlW_nF9xKUVDt-37">
          <mxGeometry width="160" relative="1" as="geometry">
            <mxPoint x="158" y="2990" as="sourcePoint" />
            <mxPoint x="-2" y="2990" as="targetPoint" />
          </mxGeometry>
        </mxCell>
        <mxCell id="S4FQM-zOlW_nF9xKUVDt-39" value="Use" style="endArrow=open;endSize=12;dashed=1;html=1;exitX=-0.002;exitY=0.19;exitDx=0;exitDy=0;entryX=1;entryY=0.25;entryDx=0;entryDy=0;exitPerimeter=0;" edge="1" parent="1" target="S4FQM-zOlW_nF9xKUVDt-36">
          <mxGeometry width="160" relative="1" as="geometry">
            <mxPoint x="827.3400000000001" y="2968" as="sourcePoint" />
            <mxPoint x="538" y="3020" as="targetPoint" />
          </mxGeometry>
        </mxCell>
        <mxCell id="S4FQM-zOlW_nF9xKUVDt-41" value="&lt;p style=&quot;margin: 0px ; margin-top: 4px ; text-align: center&quot;&gt;&lt;i&gt;&amp;lt;&amp;lt;Interface&amp;gt;&amp;gt;&lt;/i&gt;&lt;br&gt;RepositoryFactura&lt;/p&gt;&lt;hr size=&quot;1&quot;&gt;&lt;hr size=&quot;1&quot;&gt;+ findById(int): Factura" style="verticalAlign=top;align=left;overflow=fill;fontSize=12;fontFamily=Helvetica;html=1;" vertex="1" parent="1">
          <mxGeometry x="2566" y="3080" width="190" height="140" as="geometry" />
        </mxCell>
        <mxCell id="S4FQM-zOlW_nF9xKUVDt-42" value="&lt;p style=&quot;margin: 0px ; margin-top: 4px ; text-align: center&quot;&gt;&lt;b&gt;JpaRepository&lt;/b&gt;&lt;br&gt;&lt;/p&gt;&lt;hr size=&quot;1&quot;&gt;&lt;div style=&quot;height: 2px&quot;&gt;&lt;/div&gt;" style="verticalAlign=top;align=left;overflow=fill;fontSize=12;fontFamily=Helvetica;html=1;" vertex="1" parent="1">
          <mxGeometry x="2590.5" y="3390" width="140" height="60" as="geometry" />
        </mxCell>
        <mxCell id="S4FQM-zOlW_nF9xKUVDt-43" value="Extends" style="endArrow=block;endSize=16;endFill=0;html=1;exitX=0.5;exitY=1;exitDx=0;exitDy=0;" edge="1" parent="1" source="S4FQM-zOlW_nF9xKUVDt-41" target="S4FQM-zOlW_nF9xKUVDt-42">
          <mxGeometry width="160" relative="1" as="geometry">
            <mxPoint x="2396" y="3140" as="sourcePoint" />
            <mxPoint x="2236" y="3140" as="targetPoint" />
          </mxGeometry>
        </mxCell>
        <mxCell id="S4FQM-zOlW_nF9xKUVDt-44" value="Use" style="endArrow=open;endSize=12;dashed=1;html=1;exitX=0.5;exitY=1;exitDx=0;exitDy=0;entryX=0.5;entryY=0;entryDx=0;entryDy=0;" edge="1" parent="1" target="S4FQM-zOlW_nF9xKUVDt-41" source="S4FQM-zOlW_nF9xKUVDt-18">
          <mxGeometry width="160" relative="1" as="geometry">
            <mxPoint x="2979.34" y="3138" as="sourcePoint" />
            <mxPoint x="2690" y="3190" as="targetPoint" />
          </mxGeometry>
        </mxCell>
        <mxCell id="S4FQM-zOlW_nF9xKUVDt-45" value="&lt;p style=&quot;margin: 0px ; margin-top: 4px ; text-align: center&quot;&gt;&lt;i&gt;&amp;lt;&amp;lt;Interface&amp;gt;&amp;gt;&lt;/i&gt;&lt;br&gt;RepositoryProducto&lt;/p&gt;&lt;hr size=&quot;1&quot;&gt;&lt;hr size=&quot;1&quot;&gt;+ findById(int): Producto" style="verticalAlign=top;align=left;overflow=fill;fontSize=12;fontFamily=Helvetica;html=1;" vertex="1" parent="1">
          <mxGeometry x="3240" y="-1270" width="190" height="140" as="geometry" />
        </mxCell>
        <mxCell id="S4FQM-zOlW_nF9xKUVDt-46" value="&lt;p style=&quot;margin: 0px ; margin-top: 4px ; text-align: center&quot;&gt;&lt;b&gt;JpaRepository&lt;/b&gt;&lt;br&gt;&lt;/p&gt;&lt;hr size=&quot;1&quot;&gt;&lt;div style=&quot;height: 2px&quot;&gt;&lt;/div&gt;" style="verticalAlign=top;align=left;overflow=fill;fontSize=12;fontFamily=Helvetica;html=1;" vertex="1" parent="1">
          <mxGeometry x="3630" y="-1270" width="140" height="60" as="geometry" />
        </mxCell>
        <mxCell id="S4FQM-zOlW_nF9xKUVDt-47" value="Extends" style="endArrow=block;endSize=16;endFill=0;html=1;exitX=0.997;exitY=0.225;exitDx=0;exitDy=0;exitPerimeter=0;" edge="1" parent="1" source="S4FQM-zOlW_nF9xKUVDt-45">
          <mxGeometry width="160" relative="1" as="geometry">
            <mxPoint x="3070" y="-1210" as="sourcePoint" />
            <mxPoint x="3630" y="-1239" as="targetPoint" />
          </mxGeometry>
        </mxCell>
        <mxCell id="S4FQM-zOlW_nF9xKUVDt-48" value="Use" style="endArrow=open;endSize=12;dashed=1;html=1;entryX=0;entryY=0.25;entryDx=0;entryDy=0;exitX=1.012;exitY=0.219;exitDx=0;exitDy=0;exitPerimeter=0;" edge="1" parent="1" target="S4FQM-zOlW_nF9xKUVDt-45" source="S4FQM-zOlW_nF9xKUVDt-12">
          <mxGeometry width="160" relative="1" as="geometry">
            <mxPoint x="2840" y="-1235" as="sourcePoint" />
            <mxPoint x="3364" y="-1190" as="targetPoint" />
          </mxGeometry>
        </mxCell>
        <mxCell id="S4FQM-zOlW_nF9xKUVDt-49" value="&lt;p style=&quot;margin: 0px ; margin-top: 4px ; text-align: center&quot;&gt;&lt;i&gt;&amp;lt;&amp;lt;Interface&amp;gt;&amp;gt;&lt;/i&gt;&lt;br&gt;RepositoryProductoFactura&lt;/p&gt;&lt;hr size=&quot;1&quot;&gt;&lt;hr size=&quot;1&quot;&gt;" style="verticalAlign=top;align=left;overflow=fill;fontSize=12;fontFamily=Helvetica;html=1;" vertex="1" parent="1">
          <mxGeometry x="4066.04" y="920" width="190" height="140" as="geometry" />
        </mxCell>
        <mxCell id="S4FQM-zOlW_nF9xKUVDt-50" value="&lt;p style=&quot;margin: 0px ; margin-top: 4px ; text-align: center&quot;&gt;&lt;b&gt;JpaRepository&lt;/b&gt;&lt;br&gt;&lt;/p&gt;&lt;hr size=&quot;1&quot;&gt;&lt;div style=&quot;height: 2px&quot;&gt;&lt;/div&gt;" style="verticalAlign=top;align=left;overflow=fill;fontSize=12;fontFamily=Helvetica;html=1;" vertex="1" parent="1">
          <mxGeometry x="4456.04" y="920" width="140" height="60" as="geometry" />
        </mxCell>
        <mxCell id="S4FQM-zOlW_nF9xKUVDt-51" value="Extends" style="endArrow=block;endSize=16;endFill=0;html=1;exitX=0.997;exitY=0.225;exitDx=0;exitDy=0;exitPerimeter=0;" edge="1" parent="1" source="S4FQM-zOlW_nF9xKUVDt-49">
          <mxGeometry width="160" relative="1" as="geometry">
            <mxPoint x="3896.04" y="980" as="sourcePoint" />
            <mxPoint x="4456.04" y="951" as="targetPoint" />
          </mxGeometry>
        </mxCell>
        <mxCell id="S4FQM-zOlW_nF9xKUVDt-52" value="Use" style="endArrow=open;endSize=12;dashed=1;html=1;entryX=0;entryY=0.25;entryDx=0;entryDy=0;exitX=0.999;exitY=0.167;exitDx=0;exitDy=0;exitPerimeter=0;" edge="1" parent="1" target="S4FQM-zOlW_nF9xKUVDt-49" source="S4FQM-zOlW_nF9xKUVDt-20">
          <mxGeometry width="160" relative="1" as="geometry">
            <mxPoint x="3640" y="953.8000000000002" as="sourcePoint" />
            <mxPoint x="4190.04" y="1000" as="targetPoint" />
          </mxGeometry>
        </mxCell>
        <mxCell id="S4FQM-zOlW_nF9xKUVDt-55" value="&lt;p style=&quot;margin: 0px ; margin-top: 4px ; text-align: center&quot;&gt;&lt;i&gt;&amp;lt;&amp;lt;Interface&amp;gt;&amp;gt;&lt;/i&gt;&lt;br&gt;RepositoryLimpieza&lt;/p&gt;&lt;hr size=&quot;1&quot;&gt;&lt;hr size=&quot;1&quot;&gt;+ findById(int): Limpieza" style="verticalAlign=top;align=left;overflow=fill;fontSize=12;fontFamily=Helvetica;html=1;" vertex="1" parent="1">
          <mxGeometry x="1320" y="100" width="190" height="140" as="geometry" />
        </mxCell>
        <mxCell id="S4FQM-zOlW_nF9xKUVDt-56" value="&lt;p style=&quot;margin: 0px ; margin-top: 4px ; text-align: center&quot;&gt;&lt;b&gt;JpaRepository&lt;/b&gt;&lt;br&gt;&lt;/p&gt;&lt;hr size=&quot;1&quot;&gt;&lt;div style=&quot;height: 2px&quot;&gt;&lt;/div&gt;" style="verticalAlign=top;align=left;overflow=fill;fontSize=12;fontFamily=Helvetica;html=1;" vertex="1" parent="1">
          <mxGeometry x="1345" y="-100" width="140" height="60" as="geometry" />
        </mxCell>
        <mxCell id="S4FQM-zOlW_nF9xKUVDt-57" value="Extends" style="endArrow=block;endSize=16;endFill=0;html=1;" edge="1" parent="1" source="S4FQM-zOlW_nF9xKUVDt-55" target="S4FQM-zOlW_nF9xKUVDt-56">
          <mxGeometry width="160" relative="1" as="geometry">
            <mxPoint x="1375" y="-170" as="sourcePoint" />
            <mxPoint x="915" y="-430" as="targetPoint" />
          </mxGeometry>
        </mxCell>
        <mxCell id="S4FQM-zOlW_nF9xKUVDt-58" value="Use" style="endArrow=open;endSize=12;dashed=1;html=1;exitX=0.45;exitY=1.005;exitDx=0;exitDy=0;entryX=0.5;entryY=0;entryDx=0;entryDy=0;exitPerimeter=0;" edge="1" parent="1" source="S4FQM-zOlW_nF9xKUVDt-55" target="S4FQM-zOlW_nF9xKUVDt-10">
          <mxGeometry width="160" relative="1" as="geometry">
            <mxPoint x="1410.5" y="170" as="sourcePoint" />
            <mxPoint x="1819" y="490" as="targetPoint" />
          </mxGeometry>
        </mxCell>
        <mxCell id="S4FQM-zOlW_nF9xKUVDt-59" value="&lt;div align=&quot;center&quot;&gt;&lt;b&gt;DataWebSecurity&lt;/b&gt;&lt;br&gt;&lt;/div&gt;&lt;b&gt;&lt;/b&gt;&lt;hr size=&quot;1&quot;&gt;&lt;p style=&quot;margin: 0px ; margin-left: 4px&quot;&gt;- dataSource : DataSource&lt;br&gt;&lt;/p&gt;&lt;hr size=&quot;1&quot;&gt;&lt;div&gt;# configure(AutheticationManagerBuilder): void&lt;/div&gt;&lt;div&gt;# configure(HttpSecurity): void&lt;/div&gt;&lt;div&gt;+ passwordEncoder(): PasswordEncoder&lt;/div&gt;&lt;p style=&quot;margin: 0px ; margin-left: 4px&quot;&gt;&lt;br&gt;&lt;/p&gt;" style="verticalAlign=top;align=left;overflow=fill;fontSize=12;fontFamily=Helvetica;html=1;" vertex="1" parent="1">
          <mxGeometry x="3880" y="1930" width="360" height="140" as="geometry" />
        </mxCell>
        <mxCell id="S4FQM-zOlW_nF9xKUVDt-60" value="Extends" style="endArrow=block;endSize=16;endFill=0;html=1;" edge="1" parent="1">
          <mxGeometry width="160" relative="1" as="geometry">
            <mxPoint x="4240" y="1970" as="sourcePoint" />
            <mxPoint x="4440.57" y="1970" as="targetPoint" />
          </mxGeometry>
        </mxCell>
        <mxCell id="S4FQM-zOlW_nF9xKUVDt-61" value="&lt;p style=&quot;margin: 0px ; margin-top: 4px ; text-align: center&quot;&gt;&lt;i&gt;&amp;lt;&amp;lt;Abstract&amp;gt;&amp;gt;&lt;/i&gt;&lt;br&gt;&lt;b&gt;WebSecurityConfigureAdapter&lt;/b&gt;&lt;/p&gt;&lt;hr size=&quot;1&quot;&gt;" style="verticalAlign=top;align=left;overflow=fill;fontSize=12;fontFamily=Helvetica;html=1;" vertex="1" parent="1">
          <mxGeometry x="4440" y="1930" width="190" height="90" as="geometry" />
        </mxCell>
        <mxCell id="S4FQM-zOlW_nF9xKUVDt-62" value="&lt;div align=&quot;center&quot;&gt;&lt;b&gt;ProyectoPesqueraApplication&lt;/b&gt;&lt;/div&gt;&lt;hr size=&quot;1&quot;&gt;&lt;u&gt;+ main(String[ ]):void&lt;/u&gt;" style="verticalAlign=top;align=left;overflow=fill;fontSize=12;fontFamily=Helvetica;html=1;" vertex="1" parent="1">
          <mxGeometry x="3865" y="1540" width="360" height="140" as="geometry" />
        </mxCell>
        <mxCell id="S4FQM-zOlW_nF9xKUVDt-64" value="Main" style="text;html=1;strokeColor=none;fillColor=none;align=center;verticalAlign=middle;whiteSpace=wrap;rounded=0;" vertex="1" parent="1">
          <mxGeometry x="4030" y="1460" width="40" height="20" as="geometry" />
        </mxCell>
      </root>
    </mxGraphModel>
  </diagram>
</mxfile>
